
		<svg xmlns="http://www.w3.org/2000/svg" xmlns:xlink="http://www.w3.org/1999/xlink" version="1.1" width="3167.5977653631285" height="703.9106145251396">
			
			<g transform="scale(8.379888268156424) translate(10, 10)">
				<defs id="SvgjsDefs7329"><linearGradient id="SvgjsLinearGradient7333"><stop id="SvgjsStop7334" stop-color="#6d7cff" offset="0"/><stop id="SvgjsStop7335" stop-color="#ff51ff" offset="1"/></linearGradient><linearGradient id="SvgjsLinearGradient7336"><stop id="SvgjsStop7337" stop-color="#6d7cff" offset="0"/><stop id="SvgjsStop7338" stop-color="#ff51ff" offset="1"/></linearGradient></defs><g id="main_text" rel="mainfill" name="main_text" feature="main_text" xmlns:name="mainText_mainfill" groupName="main_text" fill="url(#SvgjsLinearGradient7333)" transform="translate(82.83289137391718, 17.408325766532197) scale(1.3377214686252439)"><path d="M2.32 10.12 c-0.38 0 -0.7 -0.32 -0.7 -0.7 l0 -3.72 c0 -0.38 0.32 -0.7 0.7 -0.7 l1.52 0 c0.4 0 0.7 0.32 0.7 0.7 l0 3.72 c0 0.38 -0.3 0.7 -0.7 0.7 l-1.52 0 z M13.18 5 c0.38 0 0.7 0.32 0.7 0.7 l0 13.44 c0 0.38 -0.32 0.7 -0.7 0.7 l-1.52 0 c-0.4 0 -0.7 -0.32 -0.7 -0.7 l0 -5.28 l-6.42 0 l0 5.28 c0 0.38 -0.3 0.7 -0.7 0.7 l-1.52 0 c-0.38 0 -0.7 -0.32 -0.7 -0.7 l0 -7.48 c0 -0.38 0.32 -0.7 0.7 -0.7 l8.64 0 l0 -5.26 c0 -0.38 0.3 -0.7 0.7 -0.7 l1.52 0 z M24.48 5.42 l5.6 13.22 c0.06 0.1 0.1 0.22 0.1 0.34 c0 0.38 -0.3 0.7 -0.7 0.7 l0 0 l-1.66 0 c-0.28 0 -0.54 -0.16 -0.64 -0.42 l-1.46 -3.44 l-5.66 0 l-1.44 3.44 c-0.1 0.26 -0.36 0.42 -0.64 0.42 l-1.66 0 c-0.24 0 -0.46 -0.12 -0.58 -0.32 c-0.14 -0.18 -0.16 -0.44 -0.06 -0.64 l5.64 -13.3 c0.1 -0.26 0.36 -0.42 0.64 -0.42 l1.88 0 c0.28 0 0.54 0.16 0.64 0.42 z M22.9 9.06 l-1.66 3.98 l3.32 0 z M36.42 8.22 c-0.52 0.22 -0.98 0.54 -1.34 0.96 c-0.76 0.84 -1.12 1.94 -1.12 3.32 s0.36 2.48 1.12 3.34 c0.78 0.88 1.9 1.3 3.44 1.3 c0.82 0 1.5 -0.2 2.1 -0.6 c0.62 -0.42 1.06 -0.94 1.36 -1.64 c0.1 -0.26 0.36 -0.42 0.64 -0.42 l1.58 0 c0.22 0 0.44 0.1 0.56 0.28 c0.14 0.2 0.18 0.42 0.1 0.64 c-0.5 1.4 -1.32 2.5 -2.44 3.3 c-1.2 0.86 -2.62 1.3 -4.24 1.3 c-2.14 0 -3.9 -0.74 -5.24 -2.22 c-1.24 -1.4 -1.88 -3.18 -1.88 -5.28 s0.64 -3.88 1.88 -5.28 c1.34 -1.48 3.1 -2.22 5.24 -2.22 c1.62 0 3.04 0.44 4.24 1.3 c1.12 0.8 1.94 1.92 2.44 3.3 c0.08 0.22 0.04 0.46 -0.1 0.64 c-0.12 0.18 -0.34 0.28 -0.56 0.28 l-1.58 0 c-0.28 0 -0.54 -0.16 -0.64 -0.42 c-0.3 -0.7 -0.74 -1.22 -1.36 -1.64 c-0.6 -0.4 -1.28 -0.6 -2.1 -0.6 c-0.86 0 -1.56 0.12 -2.1 0.36 z M54.14 10.58 l5.62 8 c0.16 0.22 0.18 0.5 0.06 0.72 c-0.12 0.24 -0.36 0.38 -0.62 0.38 l-1.9 0 c-0.22 0 -0.44 -0.12 -0.56 -0.3 l-4.74 -6.82 l-1.94 1.82 l0 4.6 c0 0.38 -0.32 0.7 -0.7 0.7 l-1.5 0 c-0.38 0 -0.7 -0.32 -0.7 -0.7 l0 -13.28 c0 -0.38 0.32 -0.7 0.7 -0.7 l1.5 0 c0.38 0 0.7 0.32 0.7 0.7 l0 4.76 l5.62 -5.28 c0.12 -0.12 0.3 -0.18 0.48 -0.18 l2.12 0 c0.28 0 0.54 0.18 0.64 0.44 c0.12 0.26 0.04 0.56 -0.16 0.76 z M63.62 5 c0.38 0 0.7 0.32 0.7 0.7 l0 13.28 c0 0.38 -0.32 0.7 -0.7 0.7 l-1.5 0 c-0.38 0 -0.7 -0.32 -0.7 -0.7 l0 -13.28 c0 -0.38 0.32 -0.7 0.7 -0.7 l1.5 0 z M79.72 5 c0.38 0 0.7 0.32 0.7 0.7 l0 13.28 c0 0.38 -0.32 0.7 -0.7 0.7 l-1.76 0 c-0.22 0 -0.42 -0.1 -0.56 -0.28 l-6.94 -9.5 l0 9.08 c0 0.38 -0.32 0.7 -0.7 0.7 l-1.5 0 c-0.38 0 -0.7 -0.32 -0.7 -0.7 l0 -13.28 c0 -0.38 0.32 -0.7 0.7 -0.7 l1.74 0 c0.22 0 0.44 0.1 0.56 0.28 l6.96 9.46 l0 -9.04 c0 -0.38 0.3 -0.7 0.68 -0.7 l1.52 0 z M97.67999999999999 12 l0 0.08 c0.02 0.14 0.02 0.28 0.02 0.42 c0 0.32 -0.02 0.64 -0.06 1.02 c-0.2 1.68 -0.88 3.12 -2 4.28 c-1.4 1.46 -3.22 2.2 -5.38 2.2 s-3.98 -0.74 -5.38 -2.2 c-1.36 -1.42 -2.06 -3.2 -2.06 -5.3 s0.7 -3.88 2.06 -5.3 c1.4 -1.46 3.22 -2.2 5.38 -2.2 s3.98 0.74 5.38 2.2 c0.54 0.56 0.98 1.2 1.32 1.9 c0.06 0.1 0.1 0.24 0.1 0.38 c0 0.38 -0.3 0.68 -0.7 0.68 l0 0 l-1.68 0 c-0.24 0 -0.46 -0.12 -0.58 -0.32 c-0.16 -0.24 -0.32 -0.46 -0.52 -0.66 c-0.84 -0.88 -1.92 -1.32 -3.32 -1.32 s-2.48 0.44 -3.32 1.32 c-0.82 0.88 -1.22 1.96 -1.22 3.32 s0.4 2.46 1.22 3.32 c0.84 0.88 1.92 1.32 3.32 1.32 s2.48 -0.44 3.32 -1.32 c0.46 -0.48 0.78 -1.04 0.98 -1.68 l-4.18 0 c-0.38 0 -0.7 -0.32 -0.7 -0.7 l0 -1.4 c0 -0.38 0.32 -0.7 0.7 -0.7 l6.6 0 c0.38 0 0.68 0.28 0.7 0.66 z  M114.78 15.86 l2.02 2.08 c0.14 0.14 0.2 0.34 0.18 0.54 c0 0.2 -0.1 0.38 -0.26 0.5 l-1.2 0.9 c-0.12 0.1 -0.26 0.16 -0.42 0.16 c-0.18 0 -0.36 -0.08 -0.5 -0.22 l-1.7 -1.74 c-1.36 1.26 -2.84 1.88 -4.54 1.88 c-2.94 0 -5.08 -1.94 -5.08 -4.62 c0 -1.32 0.54 -3.08 2.96 -4.32 c-0.6 -0.84 -0.98 -1.7 -0.98 -2.82 c0 -2.28 1.88 -4.02 4.36 -4.02 c2.34 0 4.08 1.66 4.08 3.86 c0 1.7 -0.92 3 -2.76 3.9 l1.86 1.9 c0.4 -0.68 0.78 -1.44 1.16 -2.28 c0.06 -0.18 0.2 -0.3 0.38 -0.38 c0.18 -0.06 0.36 -0.06 0.54 0.02 l1.3 0.6 c0.16 0.08 0.28 0.22 0.36 0.4 c0.06 0.16 0.04 0.36 -0.04 0.52 c-0.62 1.34 -1.16 2.32 -1.72 3.14 z M109.06 9.98 c1.58 -0.62 1.78 -1.3 1.78 -1.86 c0 -0.74 -0.52 -1.26 -1.28 -1.26 c-0.84 0 -1.42 0.54 -1.42 1.34 c0 0.52 0.14 0.92 0.92 1.78 z M108.06 13.08 c-1.16 0.54 -1.8 1.3 -1.8 2.2 c0 1.16 0.9 1.96 2.22 1.96 c0.86 0 1.68 -0.38 2.5 -1.14 z  M130.60000000000002 7.859999999999999 c-0.36 -0.06 -0.6 -0.34 -0.6 -0.7 l0 -1.46 c0 -0.2 0.08 -0.4 0.24 -0.52 c0.16 -0.14 0.36 -0.2 0.56 -0.18 c1.14 0.18 2.16 0.58 3.06 1.22 c1.14 0.82 1.98 1.94 2.46 3.34 c0.08 0.22 0.04 0.46 -0.08 0.64 c-0.14 0.2 -0.36 0.3 -0.58 0.3 l-1.6 0 c-0.28 0 -0.54 -0.16 -0.66 -0.42 c-0.3 -0.7 -0.74 -1.24 -1.34 -1.66 c-0.44 -0.28 -0.92 -0.48 -1.46 -0.56 z M135.66 14.5 c0.22 0 0.44 0.1 0.58 0.3 c0.12 0.18 0.16 0.42 0.08 0.64 c-0.48 1.4 -1.32 2.52 -2.46 3.34 c-0.9 0.64 -1.92 1.04 -3.06 1.22 l-0.1 0 c-0.18 0 -0.34 -0.06 -0.46 -0.18 c-0.16 -0.12 -0.24 -0.32 -0.24 -0.52 l0 -1.46 c0 -0.36 0.24 -0.64 0.58 -0.7 c0.56 -0.08 1.04 -0.26 1.48 -0.56 c0.6 -0.42 1.04 -0.96 1.34 -1.66 c0.12 -0.26 0.38 -0.42 0.66 -0.42 l1.6 0 z M128.5 5.24 c0.16 0.12 0.26 0.32 0.26 0.54 l0 1.56 c0 0.3 -0.22 0.58 -0.52 0.68 c-0.16 0.04 -0.3 0.08 -0.44 0.14 c-0.54 0.24 -0.98 0.56 -1.36 0.98 c-0.76 0.86 -1.14 1.96 -1.14 3.36 s0.38 2.5 1.14 3.36 c0.48 0.54 1.06 0.9 1.8 1.12 c0.3 0.08 0.52 0.36 0.52 0.66 l0 1.58 c0 0.22 -0.1 0.42 -0.26 0.54 c-0.14 0.12 -0.3 0.16 -0.46 0.16 l-0.14 0 c-1.42 -0.3 -2.64 -1 -3.62 -2.08 c-1.26 -1.42 -1.9 -3.2 -1.9 -5.34 c0 -2.12 0.64 -3.92 1.9 -5.34 c0.98 -1.08 2.2 -1.78 3.62 -2.06 c0.22 -0.06 0.42 0 0.6 0.14 z M145.22 5 c2.16 0 3.98 0.74 5.38 2.2 c1.36 1.42 2.06 3.2 2.06 5.3 s-0.7 3.88 -2.06 5.3 c-1.4 1.46 -3.22 2.2 -5.38 2.2 s-3.98 -0.74 -5.38 -2.2 c-1.36 -1.42 -2.06 -3.2 -2.06 -5.3 s0.7 -3.88 2.06 -5.3 c1.4 -1.46 3.22 -2.2 5.38 -2.2 z M145.22 17.14 c1.4 0 2.48 -0.44 3.32 -1.32 c0.82 -0.86 1.22 -1.96 1.22 -3.32 s-0.4 -2.44 -1.22 -3.32 c-0.84 -0.88 -1.92 -1.32 -3.32 -1.32 s-2.48 0.44 -3.32 1.32 c-0.82 0.88 -1.22 1.96 -1.22 3.32 s0.4 2.46 1.22 3.32 c0.84 0.88 1.92 1.32 3.32 1.32 z M165.34 5 c0.4 0 0.7 0.32 0.7 0.7 l0 1.44 c0 0.38 -0.3 0.7 -0.7 0.7 l-7.38 0 l0 3.22 l6.5 0 c0.4 0 0.7 0.32 0.7 0.7 l0 1.46 c0 0.38 -0.3 0.7 -0.7 0.7 l-6.5 0 l0 5.06 c0 0.38 -0.32 0.7 -0.7 0.7 l-1.5 0 c-0.38 0 -0.7 -0.32 -0.7 -0.7 l0 -13.28 c0 -0.38 0.32 -0.7 0.7 -0.7 l9.58 0 z M178.42000000000002 5 c0.4 0 0.7 0.32 0.7 0.7 l0 1.44 c0 0.38 -0.3 0.7 -0.7 0.7 l-7.38 0 l0 3.22 l6.5 0 c0.4 0 0.7 0.32 0.7 0.7 l0 1.46 c0 0.38 -0.3 0.7 -0.7 0.7 l-6.5 0 l0 5.06 c0 0.38 -0.32 0.7 -0.7 0.7 l-1.5 0 c-0.38 0 -0.7 -0.32 -0.7 -0.7 l0 -13.28 c0 -0.38 0.32 -0.7 0.7 -0.7 l9.58 0 z M191.68000000000004 5 c0.4 0 0.7 0.32 0.7 0.7 l0 1.44 c0 0.38 -0.3 0.7 -0.7 0.7 l-7.56 0 l0 3.06 l6.68 0 c0.4 0 0.7 0.32 0.7 0.7 l0 1.46 c0 0.38 -0.3 0.7 -0.7 0.7 l-6.68 0 l0 3.08 l7.56 0 c0.4 0 0.7 0.32 0.7 0.7 l0 1.44 c0 0.38 -0.3 0.7 -0.7 0.7 l-9.76 0 c-0.38 0 -0.7 -0.32 -0.7 -0.7 l0 -13.28 c0 -0.38 0.32 -0.7 0.7 -0.7 l9.76 0 z M205.26000000000005 5 c0.4 0 0.7 0.32 0.7 0.7 l0 1.44 c0 0.38 -0.3 0.7 -0.7 0.7 l-7.56 0 l0 3.06 l6.68 0 c0.4 0 0.7 0.32 0.7 0.7 l0 1.46 c0 0.38 -0.3 0.7 -0.7 0.7 l-6.68 0 l0 3.08 l7.56 0 c0.4 0 0.7 0.32 0.7 0.7 l0 1.44 c0 0.38 -0.3 0.7 -0.7 0.7 l-9.76 0 c-0.38 0 -0.7 -0.32 -0.7 -0.7 l0 -13.28 c0 -0.38 0.32 -0.7 0.7 -0.7 l9.76 0 z"/></g><g id="slogan_text" rel="mainfill" name="slogan_text" feature="slogan_text" xmlns:name="sloganText_mainfill" groupName="slogan_text" fill="#92969e" transform="translate(84.58165095428753, 45.226785619974756) scale(0.597641249608495)"><path d="M5.5 9.76 c2.18 0 3.78 1.44 4.38 2.94 l-1.26 0.68 c-0.64 -1.28 -1.66 -2.12 -3.12 -2.12 c-1.54 0 -2.6 0.88 -2.6 2.1 c0 1.14 0.72 1.86 2.24 2.44 l1.02 0.38 c2.52 0.94 4.1 2.02 4.1 4.24 c0 2.4 -2.3 3.88 -4.68 3.88 s-4.34 -1.44 -4.88 -3.44 l1.34 -0.64 c0.48 1.48 1.74 2.56 3.54 2.56 c1.6 0 2.96 -0.92 2.96 -2.34 c0 -1.6 -1.12 -2.2 -2.78 -2.84 l-1.04 -0.4 c-2.12 -0.8 -3.48 -1.9 -3.48 -3.88 c0 -2.04 1.8 -3.56 4.26 -3.56 z M16.98 13.42 c2.36 0 5.52 1.8 5.1 5.98 l-8.78 0 c0.26 2.28 2.04 3.4 3.92 3.4 c1.44 0 2.36 -0.4 3.14 -1.16 l0.96 0.88 c-0.94 1.12 -2.3 1.68 -4.12 1.68 c-2.68 0 -5.54 -1.8 -5.54 -5.38 c0 -3.6 2.96 -5.4 5.32 -5.4 z M16.98 14.84 c-1.54 0 -3.38 1.1 -3.68 3.34 l7.34 0 c-0.2 -2.24 -2.1 -3.34 -3.66 -3.34 z M28.86 13.42 c1.88 0 3.52 0.86 4.42 2.54 l-1.3 0.56 c-0.66 -1.04 -1.72 -1.64 -3.1 -1.64 c-1.72 0 -3.76 1.3 -3.76 3.94 c0 2.62 2.04 3.9 3.76 3.9 c1.38 0 2.44 -0.58 3.1 -1.62 l1.32 0.56 c-0.92 1.68 -2.56 2.52 -4.44 2.52 c-2.38 0 -5.34 -1.76 -5.34 -5.36 s2.96 -5.4 5.34 -5.4 z M38.78 24.16 c-2.02 0 -3.98 -1.3 -3.98 -4.52 l0 -6.04 l1.64 0 l0 6 c0 2.18 1.14 3.12 2.68 3.12 c1.86 0 3.14 -1.72 3.4 -2.98 l0 -6.14 l1.64 0 l0 10.4 l-1.64 0 l0 -2.42 c-0.2 0.72 -1.46 2.58 -3.74 2.58 z M51.94 13.44 c0.18 0 0.34 0 0.5 0.04 l0 1.54 c-0.16 -0.04 -0.34 -0.04 -0.48 -0.04 c-1.98 0 -3.6 1.42 -3.88 3.76 l0 5.26 l-1.64 0 l0 -10.4 l1.64 0 l0 2.74 c0.38 -1.54 1.8 -2.9 3.86 -2.9 z M55.82 9.86 l0 1.46 l-1.64 0 l0 -1.46 l1.64 0 z M55.82 13.6 l0 10.4 l-1.64 0 l0 -10.4 l1.64 0 z M62.82 14.98 l-2.2 0 l0 6.7 c0 0.62 0.24 1 0.84 1 c0.52 0 0.9 -0.12 1.34 -0.32 l0 1.4 c-0.44 0.22 -0.96 0.36 -1.78 0.36 c-1.06 0 -2.02 -0.48 -2.02 -2.3 l0 -6.84 l-1.44 0 l0 -1.38 l1.44 0 l0 -2.44 l1.62 0 l0 2.44 l2.2 0 l0 1.38 z M72.98 13.58 l1.64 0 l-6.32 14.22 l-1.64 0 l1.86 -4.14 l-4.5 -10.08 l1.64 0 l3.66 8.28 z M75.12 26.36 l1.56 -4.46 l1.52 0 l-1.72 4.46 l-1.36 0 z  M94.52000000000001 10 l1.66 0 l0 14 l-1.66 0 l0 -6.12 l-7.12 0 l0 6.12 l-1.66 0 l0 -14 l1.66 0 l0 6.32 l7.12 0 l0 -6.32 z M103.4 13.42 c2.36 0 5.34 1.8 5.34 5.4 s-2.98 5.38 -5.34 5.38 s-5.32 -1.78 -5.32 -5.38 s2.96 -5.4 5.32 -5.4 z M103.4 14.88 c-1.68 0 -3.72 1.3 -3.72 3.94 c0 2.62 2.04 3.92 3.72 3.92 c1.7 0 3.74 -1.3 3.74 -3.92 c0 -2.64 -2.04 -3.94 -3.74 -3.94 z M115.64000000000001 16.12 c-0.4 -0.84 -1.06 -1.36 -2.02 -1.36 c-1 0 -1.68 0.6 -1.68 1.4 c0 0.72 0.38 1.24 1.42 1.62 l1.04 0.36 c1.74 0.62 3.02 1.26 3.02 3.08 c0 1.98 -1.92 3 -3.7 3 c-1.8 0 -3.4 -1.04 -3.78 -2.78 l1.32 -0.4 c0.32 1.14 1.26 1.84 2.46 1.84 c1.04 0 2.08 -0.6 2.08 -1.64 c0 -0.9 -0.62 -1.38 -1.7 -1.76 l-1.16 -0.42 c-1.82 -0.64 -2.6 -1.66 -2.6 -2.9 c0 -1.62 1.44 -2.74 3.24 -2.74 c1.68 0 2.86 0.92 3.42 2.3 z M123.88000000000001 14.98 l-2.2 0 l0 6.7 c0 0.62 0.24 1 0.84 1 c0.52 0 0.9 -0.12 1.34 -0.32 l0 1.4 c-0.44 0.22 -0.96 0.36 -1.78 0.36 c-1.06 0 -2.02 -0.48 -2.02 -2.3 l0 -6.84 l-1.44 0 l0 -1.38 l1.44 0 l0 -2.44 l1.62 0 l0 2.44 l2.2 0 l0 1.38 z M127.36000000000001 9.86 l0 1.46 l-1.64 0 l0 -1.46 l1.64 0 z M127.36000000000001 13.6 l0 10.4 l-1.64 0 l0 -10.4 l1.64 0 z M135.02 13.44 c2.02 0 3.98 1.3 3.98 4.52 l0 6.04 l-1.64 0 l0 -6 c0 -2.18 -1.14 -3.12 -2.68 -3.12 c-1.86 0 -3.14 1.72 -3.4 2.98 l0 6.14 l-1.64 0 l0 -10.4 l1.64 0 l0 2.42 c0.2 -0.72 1.46 -2.58 3.74 -2.58 z M149.56 13.6 l1.64 0 l0 10.4 c0 3.14 -2.76 4.12 -4.76 4.12 c-1.6 0 -2.62 -0.42 -3.12 -0.78 l0 -1.4 c0.5 0.36 1.52 0.78 3.12 0.78 c1.8 0 3.12 -0.98 3.12 -2.72 l0 -2 c-0.48 1.2 -1.9 2.2 -3.74 2.2 c-2.36 0 -5.22 -1.78 -5.22 -5.4 c0 -3.58 2.86 -5.38 5.22 -5.38 c1.84 0 3.26 1.02 3.74 2.14 l0 -1.96 z M146 22.74 c1.78 0 3.64 -1.26 3.64 -3.94 c0 -2.66 -1.86 -3.92 -3.64 -3.92 c-1.76 0 -3.8 1.3 -3.8 3.92 c0 2.64 2.04 3.94 3.8 3.94 z M152.34 26.36 l1.56 -4.46 l1.52 0 l-1.72 4.46 l-1.36 0 z  M181.28 10 l-4.52 14 l-1.08 0 l-3.86 -10.94 l-3.84 10.94 l-1.08 0 l-4.54 -14 l1.72 0 l3.42 10.58 l3.74 -10.58 l1.16 0 l3.76 10.58 l3.42 -10.58 l1.7 0 z M187.9 13.42 c2.36 0 5.34 1.8 5.34 5.4 s-2.98 5.38 -5.34 5.38 s-5.32 -1.78 -5.32 -5.38 s2.96 -5.4 5.32 -5.4 z M187.9 14.88 c-1.68 0 -3.72 1.3 -3.72 3.94 c0 2.62 2.04 3.92 3.72 3.92 c1.7 0 3.74 -1.3 3.74 -3.92 c0 -2.64 -2.04 -3.94 -3.74 -3.94 z M196.72 9.86 l0 14.14 l-1.64 0 l0 -14.14 l1.64 0 z M202.67999999999998 11.04 c-1.1 0 -1.64 0.54 -1.64 1.82 l0 0.74 l2.94 0 l0 1.38 l-2.94 0 l0 9.02 l-1.64 0 l0 -9.02 l-1.14 0 l0 -1.38 l1.14 0 l0 -0.74 c0 -2.74 1.82 -3.2 3.14 -3.2 c0.86 0 1.66 0.24 2.26 0.62 l-0.6 1.14 c-0.46 -0.22 -0.92 -0.38 -1.52 -0.38 z"/></g><g id="SvgjsG7332" rel="mainfill" name="symbol" feature="symbol" xmlns:name="symbol_mainfill" fill="url(#SvgjsLinearGradient7336)" transform="translate(6.807265206150111, 1.8056715377814978) scale(0.7170745179265227)"><path xmlns="http://www.w3.org/2000/svg" d="M17.03,38.776c0.538-0.373,1.2-0.805,2.008-1.213c0.805-0.411,1.74-0.814,2.784-1.187c1.047-0.365,2.207-0.685,3.44-0.963  c0.307-0.06,0.619-0.121,0.934-0.183l0.248-0.041l0.124-0.021c0.104-0.021,0.208-0.053,0.307-0.099  c0.4-0.184,0.682-0.568,0.754-0.983l0.051-0.642l0.027-0.484c0.003-0.325,0.057-0.649,0.116-0.974  c0.395-2.615,1.766-5.209,3.637-7.4c0.917-1.114,1.958-2.141,3.055-3.069c0.399-0.332,0.79-0.645,1.188-0.953  c-0.288,1.252-0.354,2.498-0.364,3.663c-0.002,1.356,0.203,2.615,0.419,3.758c0.493,2.278,1.222,4.067,1.807,5.268  c0.588,1.203,1.017,1.834,1.017,1.834s-0.28-0.71-0.648-1.977c-0.184-0.633-0.382-1.407-0.572-2.298  c-0.202-0.888-0.337-1.906-0.474-3.004c-0.085-1.104-0.147-2.299-0.062-3.544c0.106-1.24,0.283-2.542,0.705-3.808l0.07-0.24  l0.035-0.121c0.052-0.199,0.026-0.07,0.059-0.249c0.078-0.572-0.138-1.008-0.503-1.326c-0.353-0.306-0.929-0.431-1.403-0.244  c-0.124,0.043-0.211,0.095-0.326,0.166l-0.113,0.076l-0.227,0.152c-0.617,0.409-1.255,0.878-1.84,1.363  c-1.191,0.977-2.331,2.065-3.356,3.271c-1.008,1.218-1.894,2.556-2.578,3.982c-0.706,1.417-1.1,2.965-1.272,4.467  c-0.049,0.376-0.091,0.749-0.08,1.123l-0.005,0.555l0.002,0.236l-0.116,0.029c-0.341,0.088-0.669,0.18-0.988,0.274  c-1.282,0.38-2.458,0.844-3.507,1.348c-1.053,0.495-1.97,1.051-2.742,1.594c-0.783,0.528-1.387,1.096-1.869,1.564  c-0.472,0.482-0.807,0.89-1.011,1.185c-0.21,0.288-0.322,0.442-0.322,0.442s0.14-0.128,0.402-0.369  C16.092,39.481,16.509,39.167,17.03,38.776z M35.936,19.585c0-0.003,0-0.005,0.001-0.009c0.002-0.004,0.001-0.003,0.006-0.019  L35.936,19.585z M35.938,19.566c0.001-0.008,0-0.013,0.001-0.021C35.954,19.495,35.944,19.536,35.938,19.566z"/><path xmlns="http://www.w3.org/2000/svg" d="M10.039,51.763c0.47-1,0.879-2.015,1.413-2.931c0.237-0.474,0.512-0.916,0.777-1.353c0.263-0.438,0.51-0.875,0.797-1.27  c0.541-0.813,1.094-1.556,1.611-2.242c0.544-0.662,1.04-1.279,1.512-1.8c0.474-0.517,0.888-0.975,1.25-1.33  c0.714-0.724,1.16-1.109,1.16-1.109s-0.131,0.067-0.376,0.193c-0.24,0.135-0.605,0.319-1.032,0.608  c-0.437,0.277-0.954,0.635-1.521,1.081c-0.573,0.441-1.191,0.974-1.839,1.588c-0.633,0.628-1.317,1.318-1.957,2.121  c-0.342,0.385-0.647,0.816-0.97,1.25c-0.334,0.427-0.639,0.888-0.926,1.372c-0.612,0.945-1.156,1.978-1.666,3.049  C7.82,52.087,7.353,53.2,7.027,54.363c-0.184,0.575-0.336,1.158-0.44,1.75c-0.115,0.589-0.248,1.172-0.345,1.756  c-0.071,0.588-0.132,1.172-0.182,1.75c-0.025,0.278-0.051,0.554-0.075,0.828c-0.016,0.288-0.033,0.575-0.049,0.859  c-0.089,2.235,0.057,4.306,0.299,6.065c0.243,1.758,0.587,3.198,0.889,4.184c0.13,0.497,0.291,0.874,0.374,1.136  c0.091,0.259,0.14,0.398,0.14,0.398s-0.044-0.583-0.122-1.604c-0.08-1.015-0.13-2.465-0.135-4.19  c0.019-1.726,0.091-3.738,0.312-5.86c0.031-0.26,0.062-0.522,0.093-0.786c0.042-0.276,0.085-0.554,0.127-0.834  C8,59.277,8.079,58.733,8.148,58.183c0.102-0.544,0.239-1.085,0.357-1.632c0.105-0.551,0.262-1.089,0.44-1.622  C9.224,53.839,9.641,52.796,10.039,51.763z"/><path xmlns="http://www.w3.org/2000/svg" d="M19.474,76.999c-0.686-0.698-1.413-1.561-2.092-2.558c-0.344-0.495-0.66-1.032-0.975-1.581  c-0.296-0.534-0.61-1.123-0.88-1.712c-0.555-1.18-1.068-2.39-1.504-3.549c-0.437-1.159-0.811-2.262-1.126-3.22  c-0.614-1.952-1.023-3.253-1.023-3.253s-0.058,0.344-0.106,0.949c-0.048,0.61-0.073,1.479,0.007,2.521  c0.068,1.042,0.249,2.254,0.571,3.525c0.313,1.273,0.772,2.607,1.375,3.883c0.308,0.64,0.634,1.25,1.028,1.861  c0.368,0.601,0.813,1.14,1.243,1.655c0.874,1.021,1.857,1.833,2.779,2.385c0.913,0.568,1.764,0.866,2.36,1.014  c0.293,0.089,0.539,0.11,0.699,0.138c0.161,0.025,0.247,0.038,0.247,0.038s-0.299-0.187-0.778-0.537  C20.813,78.215,20.164,77.692,19.474,76.999z"/><path xmlns="http://www.w3.org/2000/svg" d="M39.779,27.83c0.357-0.327,0.758-0.661,1.19-0.993c0.43-0.335,0.911-0.649,1.411-0.959c0.494-0.319,1.043-0.585,1.598-0.848  c0.091-0.04,0.181-0.083,0.272-0.125c-0.233,0.395-0.452,0.793-0.658,1.186c-0.591,1.171-1,2.35-1.184,3.4  c-0.204,1.045-0.17,1.949-0.064,2.552c0.036,0.303,0.122,0.534,0.168,0.689c0.048,0.154,0.073,0.235,0.073,0.235  s0.012-0.085,0.035-0.245c0.019-0.159,0.057-0.387,0.122-0.671c0.119-0.569,0.365-1.344,0.764-2.221  c0.401-0.877,0.955-1.852,1.615-2.863c0.324-0.507,0.704-1.01,1.068-1.522l0.286-0.383l0.151-0.199  c0.008-0.007,0.088-0.123,0.143-0.223c0.053-0.106,0.102-0.218,0.13-0.338c0.229-0.984-0.492-1.971-1.632-1.897  c-0.212,0.028-0.224,0.044-0.261,0.051l-0.111,0.035l-0.031,0.013l-0.062,0.025l-0.248,0.101l-0.495,0.203  c-0.335,0.122-0.64,0.312-0.955,0.468c-0.625,0.326-1.199,0.725-1.728,1.136c-0.54,0.397-1.003,0.856-1.414,1.307  c-0.423,0.44-0.765,0.908-1.055,1.349c-0.589,0.879-0.927,1.695-1.114,2.272c-0.185,0.581-0.221,0.927-0.221,0.927  S38.354,29.142,39.779,27.83z M45.542,24.381l0.01-0.004C45.574,24.372,45.58,24.372,45.542,24.381z"/><path xmlns="http://www.w3.org/2000/svg" d="M51.822,39.963c-0.052-0.715-0.327-1.417-0.785-1.969c-0.46-0.549-1.042-0.972-1.656-1.304  c-0.618-0.329-1.242-0.62-1.884-0.89c-2.558-1.082-5.245-1.783-7.925-2.446l-0.048,0.194l3.878,1.465  c1.278,0.5,2.526,1.051,3.715,1.68c0.299,0.158,0.589,0.32,0.87,0.483c0.291,0.174,0.607,0.339,0.849,0.5  c0.519,0.326,0.949,0.711,1.228,1.11c0.272,0.404,0.381,0.811,0.379,1.279c-0.014,0.228-0.029,0.508-0.084,0.72  c-0.009,0.086-0.072,0.299-0.11,0.454c-0.026,0.076-0.096,0.112-0.123,0.175l-0.442,1.031l0.902,0.653  c1.274,0.921,2.615,1.561,3.861,2.184c0.623,0.313,1.237,0.595,1.807,0.907l0.417,0.233l0.397,0.237l0.737,0.471l0.012,0.011  l0.411,0.358l0.631,0.017l1.534,0.042l0.767,0.021l0.109,0.003c0.024,0.002,0.055,0.006,0.055,0.006l0.091,0.009l0.35,0.039  c0.45,0.058,0.856,0.123,1.174,0.223c0.184,0.058,0.379,0.129,0.524,0.261c-0.015-0.013-0.026-0.031-0.03-0.05  c0.023,0.035,0.046,0.07,0.07,0.105c0.054,0.281,0.012,0.633-0.135,0.882c0,0-0.08,0.135-0.08,0.135  c-0.057,0.073,0.011-0.005-0.109,0.136c-0.096,0.106-0.284,0.309-0.425,0.447c-0.304,0.304-0.623,0.574-0.919,0.781  c-0.142,0.103-0.299,0.198-0.404,0.252c-0.026,0.01-0.008,0.01-0.067,0.034l-0.159,0.066c-0.279,0.109-0.544,0.261-0.78,0.447  c-0.472,0.371-0.826,0.873-1.02,1.427c-0.099,0.303-0.154,0.51-0.175,0.919l-0.002,0.293c-0.004,0.133-0.068,0.247-0.065,0.236  c0.003-0.01,0.029-0.012-0.007,0.006c-0.06,0.03-0.125,0.049-0.19,0.065c-0.211,0.054-0.435,0.068-0.651,0.083  c-0.303,0.009-0.605,0.018-0.908,0.027c0,0-0.767,0.024-0.767,0.024c-0.133,0.015-0.453,0.004-0.67,0.008  c-0.97-0.005-1.962-0.057-2.973-0.121c-2.02-0.13-4.128-0.307-6.298-0.161c-1.079,0.065-2.208,0.211-3.258,0.453  c-1.076,0.244-2.122,0.616-3.122,1.078c-0.996,0.47-1.951,1.033-2.814,1.713c-0.862,0.689-1.613,1.477-2.277,2.359  c-0.623,0.832-1.206,1.825-1.527,2.843c-0.351,1.021-0.424,2.133-0.263,3.158l0.2-0.006c-0.051-1.011,0.156-2.019,0.552-2.947  c0.388-0.937,0.966-1.771,1.642-2.535c1.334-1.525,3.072-2.674,4.953-3.423c1.886-0.751,3.921-1.093,5.948-1.121  c2.035-0.038,4.068,0.188,6.106,0.375c1.02,0.094,2.043,0.178,3.071,0.215c0.514,0.025,1.039,0.011,1.544,0  c0.507-0.015,1.025,0.001,1.552-0.069c0.517-0.067,1.08-0.215,1.502-0.615c0.415-0.392,0.632-0.941,0.68-1.488  c0.017-0.304-0.009-0.5,0.078-0.708c0.074-0.207,0.207-0.391,0.38-0.525c0.161-0.14,0.388-0.185,0.65-0.317  c0.244-0.119,0.469-0.257,0.687-0.408c0.433-0.303,0.822-0.655,1.187-1.025c0.352-0.369,0.742-0.754,0.973-1.258  c0.234-0.491,0.347-1.032,0.336-1.574c0.003-0.529-0.201-1.135-0.585-1.519c-0.814-0.815-1.941-0.953-2.949-1.062  c-1.032-0.086-2.015-0.025-3.023-0.04l-0.028-0.023c-0.612-0.376-1.221-0.745-1.854-1.056c-0.63-0.316-1.272-0.6-1.911-0.883  c-1.242-0.549-2.487-1.092-3.614-1.825c0.14-0.295,0.222-0.593,0.259-0.9C51.833,40.675,51.839,40.32,51.822,39.963z"/><path xmlns="http://www.w3.org/2000/svg" d="M44.102,40.978c0.051,0.19,0.115,0.393,0.225,0.607c0.421,0.808,1.349,1.16,2.223,1.055  c0.557-0.067,1.049-0.252,1.494-0.486l0.334-0.188c0.018-0.001,0.384-0.228,0.535-0.492c0.348-0.523,0.347-1.236-0.058-1.769  c-0.324-0.361-0.344-0.298-0.458-0.397l-0.299-0.204c-0.193-0.143-0.413-0.249-0.623-0.363c-0.207-0.12-0.425-0.217-0.647-0.3  c-0.216-0.092-0.434-0.174-0.658-0.23c-0.437-0.134-0.877-0.211-1.293-0.242c-0.414-0.042-0.811-0.02-1.168,0.022  c-0.716,0.076-1.28,0.286-1.647,0.467c-0.368,0.185-0.546,0.341-0.546,0.341s0.942,0.019,2.127,0.333  c0.138,0.036,0.287,0.095,0.43,0.141C44.009,39.675,43.928,40.242,44.102,40.978z M45.54,39.864  c0.326,0.161,0.653,0.346,0.971,0.557c0.101,0.064,0.2,0.135,0.299,0.203c-0.203,0.114-0.401,0.214-0.575,0.27  c-0.273,0.066-0.385,0.132-0.625,0.031c0.009,0.018-0.098-0.024-0.188-0.108c-0.094-0.075-0.182-0.179-0.264-0.288  c-0.251-0.363-0.437-0.76-0.578-1.087C44.897,39.557,45.219,39.699,45.54,39.864z"/><path xmlns="http://www.w3.org/2000/svg" d="M79.495,75.232c-1.969-0.286-4.204-0.559-6.66-0.673c-1.228-0.057-2.506-0.101-3.847-0.088  c-1.329,0.013-2.678,0.063-4.123,0.213c-2.849,0.317-5.801,1.076-8.688,2.19c-2.901,1.09-5.777,2.447-8.654,3.831  c-1.452,0.691-2.87,1.368-4.358,2.015c-1.449,0.62-2.898,1.164-4.434,1.507c-3.039,0.753-6.221,0.957-9.309,0.694  c-3.08-0.273-6.116-0.956-8.822-2.07c-0.669-0.244-1.364-0.604-2.039-0.912l-0.906-0.498c-0.303-0.177-0.589-0.376-0.884-0.561  c-1.146-0.784-2.154-1.717-3.002-2.741c-1.696-2.056-2.78-4.428-3.4-6.716c-0.645-2.287-0.819-4.498-0.954-6.465  c-0.12-1.964-0.104-3.684-0.027-5.098c0.088-1.412,0.203-2.523,0.32-3.274c0.111-0.753,0.196-1.152,0.196-1.152  s-0.121,0.388-0.302,1.13c-0.178,0.743-0.427,1.84-0.6,3.26c-0.176,1.419-0.311,3.155-0.327,5.151  c-0.003,1.982,0.009,4.277,0.585,6.722c0.53,2.436,1.552,5.048,3.348,7.368c0.891,1.158,1.97,2.234,3.214,3.151  c0.318,0.218,0.631,0.45,0.961,0.658c0.344,0.199,0.691,0.4,1.039,0.601c0.68,0.327,1.32,0.681,2.076,0.983  c2.908,1.256,6.065,2.078,9.355,2.382c3.282,0.303,6.674,0.113,9.953-0.673c1.639-0.373,3.242-0.989,4.761-1.654  c1.477-0.654,2.965-1.377,4.396-2.072c2.887-1.39,5.664-2.828,8.454-3.929c2.778-1.123,5.548-1.951,8.24-2.35  c1.328-0.191,2.695-0.282,3.992-0.356c1.286-0.076,2.547-0.097,3.757-0.101c4.839,0.029,8.885,0.416,11.698,0.793  c2.816,0.37,4.416,0.674,4.416,0.674s-1.558-0.477-4.351-1.058C83.17,75.828,81.464,75.52,79.495,75.232z"/><path xmlns="http://www.w3.org/2000/svg" d="M94.053,35.264c-0.18-3.434-1.128-6.882-2.77-9.973c-1.691-3.064-4.055-5.746-6.831-7.776  c-0.674-0.538-1.412-0.974-2.15-1.401c-0.711-0.46-1.528-0.783-2.302-1.148c-0.788-0.4-1.533-0.568-2.293-0.854l-0.611-0.204  l-0.602-0.141l-1.197-0.279c-3.198-0.666-6.412-0.587-9.32,0.025c-2.918,0.601-5.521,1.759-7.686,3.147  c-2.169,1.387-3.938,2.987-5.229,4.616c-0.709,0.761-1.188,1.619-1.72,2.335c-0.464,0.765-0.844,1.494-1.208,2.136  c-0.291,0.682-0.55,1.29-0.776,1.82c-0.228,0.526-0.324,1.004-0.452,1.376c-0.229,0.753-0.351,1.154-0.351,1.154  s0.157-0.389,0.453-1.118c0.161-0.358,0.301-0.829,0.573-1.328c0.26-0.501,0.56-1.076,0.895-1.721  c0.401-0.608,0.82-1.296,1.321-2.009c0.569-0.665,1.082-1.463,1.82-2.154c1.352-1.487,3.153-2.898,5.267-4.129  c2.124-1.217,4.628-2.183,7.374-2.664c2.744-0.481,5.725-0.43,8.673,0.232c0.715,0.209,1.509,0.329,2.174,0.609  c0.726,0.291,1.558,0.51,2.203,0.873c0.678,0.346,1.38,0.628,2.036,1.075c0.671,0.404,1.35,0.802,1.963,1.304  c2.535,1.881,4.687,4.356,6.218,7.174c1.518,2.825,2.414,5.979,2.6,9.131c0.181,3.161-0.279,6.27-1.362,9.146  c-1.051,2.8-2.64,5.327-4.544,7.361c-1.905,2.035-4.084,3.601-6.264,4.713c-2.187,1.095-4.353,1.83-6.338,2.148  c-0.982,0.24-1.931,0.233-2.798,0.345c-0.871,0.029-1.676,0.003-2.404,0.006c-0.725-0.072-1.372-0.137-1.935-0.193  c-0.567-0.045-1.032-0.185-1.42-0.246c-0.772-0.152-1.183-0.233-1.183-0.233s0.403,0.118,1.158,0.338  c0.381,0.096,0.84,0.279,1.404,0.376c0.565,0.101,1.215,0.216,1.943,0.346c0.737,0.047,1.555,0.128,2.449,0.159  c0.89-0.053,1.871,0.016,2.896-0.161c2.07-0.187,4.378-0.793,6.726-1.849c2.348-1.052,4.741-2.598,6.842-4.711  c2.104-2.098,3.929-4.741,5.13-7.811C93.605,42.125,94.257,38.692,94.053,35.264z"/></g>
			</g>
		</svg>
	